<svg width="24" height="24" viewBox="0 0 24 24" fill="none" xmlns="http://www.w3.org/2000/svg">
<mask id="mask0_199_1274" style="mask-type:alpha" maskUnits="userSpaceOnUse" x="0" y="0" width="24" height="24">
<rect width="24" height="24" fill="#D9D9D9"/>
</mask>
<g mask="url(#mask0_199_1274)">
<path d="M5.99951 14H13.9995V12H5.99951V14ZM5.99951 11H17.9995V9H5.99951V11ZM5.99951 8H17.9995V6H5.99951V8ZM1.99951 22V4C1.99951 3.45 2.19551 2.979 2.58751 2.587C2.97885 2.19567 3.44951 2 3.99951 2H19.9995C20.5495 2 21.0205 2.19567 21.4125 2.587C21.8038 2.979 21.9995 3.45 21.9995 4V16C21.9995 16.55 21.8038 17.021 21.4125 17.413C21.0205 17.8043 20.5495 18 19.9995 18H5.99951L1.99951 22ZM3.99951 17.175L5.17451 16H19.9995V4H3.99951V17.175Z" fill="#111111"/>
</g>
</svg>
