<svg width="25" height="24" viewBox="0 0 25 24" fill="none" xmlns="http://www.w3.org/2000/svg">
<mask id="mask0_209_14" style="mask-type:alpha" maskUnits="userSpaceOnUse" x="0" y="0" width="25" height="24">
<rect x="0.199707" width="24" height="24" fill="#D9D9D9"/>
</mask>
<g mask="url(#mask0_209_14)">
<path d="M7.2002 21C6.6502 21 6.17953 20.8043 5.7882 20.413C5.3962 20.021 5.2002 19.55 5.2002 19V6H4.2002V4H9.2002V3H15.2002V4H20.2002V6H19.2002V19C19.2002 19.55 19.0045 20.021 18.6132 20.413C18.2212 20.8043 17.7502 21 17.2002 21H7.2002ZM17.2002 6H7.2002V19H17.2002V6ZM9.2002 17H11.2002V8H9.2002V17ZM13.2002 17H15.2002V8H13.2002V17Z" fill="#FF595E"/>
</g>
</svg>
