<svg width="48" height="48" viewBox="0 0 48 48" fill="none" xmlns="http://www.w3.org/2000/svg">
<rect width="48" height="48" fill="#FF5050"/>
<mask id="mask0_228_1578" style="mask-type:alpha" maskUnits="userSpaceOnUse" x="13" y="13" width="22" height="22">
<rect x="13" y="13" width="22" height="22" fill="#D9D9D9"/>
</mask>
<g mask="url(#mask0_228_1578)">
<path d="M19.417 32.25C18.9128 32.25 18.4814 32.0706 18.1227 31.7119C17.7633 31.3526 17.5837 30.9208 17.5837 30.4167V18.5H16.667V16.6667H21.2503V15.75H26.7503V16.6667H31.3337V18.5H30.417V30.4167C30.417 30.9208 30.2376 31.3526 29.8789 31.7119C29.5196 32.0706 29.0878 32.25 28.5837 32.25H19.417ZM28.5837 18.5H19.417V30.4167H28.5837V18.5ZM21.2503 28.5833H23.0837V20.3333H21.2503V28.5833ZM24.917 28.5833H26.7503V20.3333H24.917V28.5833Z" fill="white"/>
</g>
</svg>
