<svg width="48" height="48" viewBox="0 0 48 48" fill="none" xmlns="http://www.w3.org/2000/svg">
<rect x="1" y="1" width="46" height="46" fill="white"/>
<mask id="mask0_48_1486" style="mask-type:alpha" maskUnits="userSpaceOnUse" x="12" y="12" width="24" height="24">
<rect x="12" y="12" width="24" height="24" fill="#D9D9D9"/>
</mask>
<g mask="url(#mask0_48_1486)">
<path d="M19.5 30C19.9167 30 20.2707 29.854 20.562 29.562C20.854 29.2707 21 28.9167 21 28.5C21 28.0833 20.854 27.7293 20.562 27.438C20.2707 27.146 19.9167 27 19.5 27C19.0833 27 18.7293 27.146 18.438 27.438C18.146 27.7293 18 28.0833 18 28.5C18 28.9167 18.146 29.2707 18.438 29.562C18.7293 29.854 19.0833 30 19.5 30ZM19.5 21C19.9167 21 20.2707 20.854 20.562 20.562C20.854 20.2707 21 19.9167 21 19.5C21 19.0833 20.854 18.7293 20.562 18.438C20.2707 18.146 19.9167 18 19.5 18C19.0833 18 18.7293 18.146 18.438 18.438C18.146 18.7293 18 19.0833 18 19.5C18 19.9167 18.146 20.2707 18.438 20.562C18.7293 20.854 19.0833 21 19.5 21ZM24 25.5C24.4167 25.5 24.7707 25.354 25.062 25.062C25.354 24.7707 25.5 24.4167 25.5 24C25.5 23.5833 25.354 23.2293 25.062 22.938C24.7707 22.646 24.4167 22.5 24 22.5C23.5833 22.5 23.2293 22.646 22.938 22.938C22.646 23.2293 22.5 23.5833 22.5 24C22.5 24.4167 22.646 24.7707 22.938 25.062C23.2293 25.354 23.5833 25.5 24 25.5ZM28.5 30C28.9167 30 29.2707 29.854 29.562 29.562C29.854 29.2707 30 28.9167 30 28.5C30 28.0833 29.854 27.7293 29.562 27.438C29.2707 27.146 28.9167 27 28.5 27C28.0833 27 27.7293 27.146 27.438 27.438C27.146 27.7293 27 28.0833 27 28.5C27 28.9167 27.146 29.2707 27.438 29.562C27.7293 29.854 28.0833 30 28.5 30ZM28.5 21C28.9167 21 29.2707 20.854 29.562 20.562C29.854 20.2707 30 19.9167 30 19.5C30 19.0833 29.854 18.7293 29.562 18.438C29.2707 18.146 28.9167 18 28.5 18C28.0833 18 27.7293 18.146 27.438 18.438C27.146 18.7293 27 19.0833 27 19.5C27 19.9167 27.146 20.2707 27.438 20.562C27.7293 20.854 28.0833 21 28.5 21ZM17 33C16.45 33 15.979 32.8043 15.587 32.413C15.1957 32.021 15 31.55 15 31V17C15 16.45 15.1957 15.979 15.587 15.587C15.979 15.1957 16.45 15 17 15H31C31.55 15 32.021 15.1957 32.413 15.587C32.8043 15.979 33 16.45 33 17V31C33 31.55 32.8043 32.021 32.413 32.413C32.021 32.8043 31.55 33 31 33H17ZM17 31H31V17H17V31Z" fill="#909090"/>
</g>
<rect x="1" y="1" width="46" height="46" stroke="#C0C0C0" stroke-width="2"/>
</svg>
