<svg width="48" height="48" viewBox="0 0 48 48" fill="none" xmlns="http://www.w3.org/2000/svg">
<mask id="mask0_199_1256" style="mask-type:alpha" maskUnits="userSpaceOnUse" x="12" y="12" width="24" height="24">
<rect x="12" y="12" width="24" height="24" fill="#D9D9D9"/>
</mask>
<g mask="url(#mask0_199_1256)">
<path d="M17.85 29.1C18.7 28.45 19.65 27.9375 20.7 27.5625C21.75 27.1875 22.85 27 24 27C25.15 27 26.25 27.1875 27.3 27.5625C28.35 27.9375 29.3 28.45 30.15 29.1C30.7333 28.4167 31.1875 27.6417 31.5125 26.775C31.8375 25.9083 32 24.9833 32 24C32 21.7833 31.2208 19.8958 29.6625 18.3375C28.1042 16.7792 26.2167 16 24 16C21.7833 16 19.8958 16.7792 18.3375 18.3375C16.7792 19.8958 16 21.7833 16 24C16 24.9833 16.1625 25.9083 16.4875 26.775C16.8125 27.6417 17.2667 28.4167 17.85 29.1ZM24 25C23.0167 25 22.1875 24.6625 21.5125 23.9875C20.8375 23.3125 20.5 22.4833 20.5 21.5C20.5 20.5167 20.8375 19.6875 21.5125 19.0125C22.1875 18.3375 23.0167 18 24 18C24.9833 18 25.8125 18.3375 26.4875 19.0125C27.1625 19.6875 27.5 20.5167 27.5 21.5C27.5 22.4833 27.1625 23.3125 26.4875 23.9875C25.8125 24.6625 24.9833 25 24 25ZM24 34C22.6167 34 21.3167 33.7375 20.1 33.2125C18.8833 32.6875 17.825 31.975 16.925 31.075C16.025 30.175 15.3125 29.1167 14.7875 27.9C14.2625 26.6833 14 25.3833 14 24C14 22.6167 14.2625 21.3167 14.7875 20.1C15.3125 18.8833 16.025 17.825 16.925 16.925C17.825 16.025 18.8833 15.3125 20.1 14.7875C21.3167 14.2625 22.6167 14 24 14C25.3833 14 26.6833 14.2625 27.9 14.7875C29.1167 15.3125 30.175 16.025 31.075 16.925C31.975 17.825 32.6875 18.8833 33.2125 20.1C33.7375 21.3167 34 22.6167 34 24C34 25.3833 33.7375 26.6833 33.2125 27.9C32.6875 29.1167 31.975 30.175 31.075 31.075C30.175 31.975 29.1167 32.6875 27.9 33.2125C26.6833 33.7375 25.3833 34 24 34Z" fill="#111111"/>
</g>
</svg>
